<?xml version="1.0" encoding="utf-8"?>
<!-- Generator: Adobe Illustrator 21.0.2, SVG Export Plug-In . SVG Version: 6.00 Build 0)  -->
<svg version="1.1" id="Layer_1" xmlns="http://www.w3.org/2000/svg" xmlns:xlink="http://www.w3.org/1999/xlink" x="0px" y="0px"
	 viewBox="0 0 159.5 100.9" style="enable-background:new 0 0 159.5 100.9;" xml:space="preserve">
<style type="text/css">
	.st0{fill-rule:evenodd;clip-rule:evenodd;fill:#FFFFFF;}
</style>
<g>
	<g>
		<path class="st0" d="M3.9,99.6c-0.6,0.1-1.1,0.2-1.6,0.2c-0.2,0-0.4,0-0.6,0c-0.2,0-0.4-0.1-0.6-0.1c-0.2-0.1-0.4-0.1-0.6-0.2
			c-0.2-0.1-0.3-0.2-0.4-0.4C0.1,98.7,0,98.5,0,98.3v-2.2c0-1,0.8-1.5,2.3-1.5c0.4,0,0.9,0.1,1.6,0.2v0.9c-0.6-0.1-1.1-0.2-1.6-0.2
			c-0.2,0-0.3,0-0.4,0s-0.2,0-0.3,0.1c-0.1,0-0.2,0.1-0.3,0.2c-0.1,0.1-0.1,0.2-0.1,0.3v2.1c0,0.4,0.4,0.7,1.2,0.7
			c0.4,0,0.9-0.1,1.5-0.2V99.6L3.9,99.6z M10.7,99.6H6.8v-5h3.8v0.8H8v1.1h2.3v0.8H8v1.3h2.7V99.6L10.7,99.6z M17.6,95.8v0.9
			c0,0.5-0.2,0.8-0.5,1c-0.3,0.2-0.9,0.3-1.6,0.3h-0.7v1.6h-1.2v-5h2c0.7,0,1.2,0.1,1.5,0.2C17.5,95.1,17.6,95.4,17.6,95.8
			L17.6,95.8z M16.5,96.7v-0.8c0-0.2-0.1-0.3-0.2-0.3c-0.1-0.1-0.3-0.1-0.7-0.1h-0.7v1.7h0.8c0.3,0,0.5,0,0.7-0.1
			C16.4,97,16.5,96.9,16.5,96.7L16.5,96.7z M24.5,95.5H23v4.1h-1.2v-4.1h-1.5v-0.8h4.2V95.5L24.5,95.5z M28.6,99.6h-1.3v-5h1.1v3.5
			l2.2-3.5H32v5h-1.1v-3.5L28.6,99.6L28.6,99.6z M38.2,99.6H37v-0.5c-0.3,0-0.7,0-0.9-0.1c-0.3-0.1-0.5-0.2-0.7-0.5
			c-0.2-0.2-0.3-0.5-0.3-0.8v-1.1c0-0.3,0.1-0.6,0.3-0.9c0.2-0.2,0.4-0.4,0.7-0.5c0.3-0.1,0.6-0.1,0.9-0.1v-0.5h1.1v0.5
			c0.3,0,0.6,0,0.9,0.1c0.3,0.1,0.5,0.2,0.7,0.5c0.2,0.2,0.3,0.5,0.3,0.9v1.1c0,0.3-0.1,0.6-0.3,0.8c-0.2,0.2-0.4,0.4-0.7,0.5
			c-0.3,0.1-0.6,0.1-0.9,0.1V99.6L38.2,99.6z M38.9,97.8v-1.2c0-0.2-0.1-0.3-0.2-0.4c-0.1-0.1-0.3-0.2-0.5-0.2v2.3
			c0.2,0,0.4,0,0.5-0.1C38.8,98.1,38.9,98,38.9,97.8L38.9,97.8z M36.3,97.8c0,0.2,0.1,0.3,0.2,0.4c0.1,0.1,0.3,0.1,0.5,0.1V96
			c-0.2,0-0.4,0.1-0.5,0.2c-0.1,0.1-0.2,0.3-0.2,0.4V97.8L36.3,97.8z M44.5,99.6h-1.3v-5h1.1v3.5l2.2-3.5h1.3v5h-1.1v-3.5L44.5,99.6
			L44.5,99.6z M51.1,99.6v-5h1.2v2c0.2,0,0.3,0,0.4-0.1c0.1,0,0.2-0.1,0.2-0.2l0.5-0.9c0.2-0.4,0.4-0.6,0.6-0.7
			c0.2-0.1,0.5-0.1,0.9-0.1h0.5v0.8h-0.3c-0.3,0-0.4,0-0.5,0.1c-0.1,0-0.2,0.2-0.3,0.3L54,96.4c-0.1,0.2-0.2,0.3-0.3,0.3
			c-0.1,0.1-0.2,0.1-0.3,0.2c0.1,0,0.3,0.1,0.5,0.3c0.2,0.2,0.4,0.4,0.6,0.8l1.1,1.6h-1.4l-0.9-1.5c-0.2-0.3-0.4-0.5-0.5-0.6
			c-0.1-0.1-0.3-0.1-0.6-0.1v2.2H51.1L51.1,99.6z M62.9,99.6h-1.2l-0.4-1.3h-1.8L59,99.6h-1.2l1.8-5h1.4L62.9,99.6L62.9,99.6z
			 M61,97.5l-0.6-1.9h0l-0.6,1.9H61L61,97.5z M68.9,100.9v-1.3h-3.3v-5h1.2v4.1h2.1v-4.1h1.2v6.2H68.9L68.9,100.9z M74.6,99.6h-1.3
			v-5h1.1v3.5l2.2-3.5H78v5h-1.1v-3.5L74.6,99.6L74.6,99.6z M85.8,96.1v2.2c0,0.3-0.1,0.5-0.2,0.7c-0.1,0.2-0.3,0.3-0.6,0.4
			c-0.2,0.1-0.5,0.2-0.7,0.2c-0.2,0-0.5,0.1-0.8,0.1c-0.3,0-0.5,0-0.7,0c-0.2,0-0.5-0.1-0.7-0.2c-0.3-0.1-0.5-0.2-0.6-0.4
			c-0.2-0.2-0.2-0.5-0.2-0.8v-2.2c0-0.3,0.1-0.5,0.2-0.7c0.1-0.2,0.3-0.3,0.4-0.4c0.2-0.1,0.4-0.2,0.6-0.2c0.2-0.1,0.4-0.1,0.6-0.1
			c0.2,0,0.4,0,0.6,0c0.2,0,0.4,0,0.6,0c0.2,0,0.4,0.1,0.6,0.1c0.2,0.1,0.4,0.1,0.6,0.2c0.2,0.1,0.3,0.2,0.4,0.4
			C85.8,95.6,85.8,95.9,85.8,96.1L85.8,96.1z M84.7,98.3v-2.2c0-0.2-0.1-0.4-0.3-0.5c-0.2-0.1-0.5-0.1-0.9-0.1c-0.4,0-0.7,0-0.9,0.1
			c-0.2,0.1-0.3,0.3-0.3,0.5v2.2c0,0.1,0,0.2,0.1,0.3c0.1,0.1,0.2,0.1,0.3,0.2c0.1,0,0.2,0.1,0.4,0.1c0.1,0,0.3,0,0.4,0
			c0.2,0,0.3,0,0.4,0c0.1,0,0.2,0,0.4-0.1c0.1,0,0.2-0.1,0.3-0.2C84.6,98.5,84.7,98.4,84.7,98.3L84.7,98.3z M93.5,99.6h-1.2v-2.1
			h-2.1v2.1H89v-5h1.2v2h2.1v-2h1.2V99.6L93.5,99.6z M101.2,99.6H100v-2.1h-2.1v2.1h-1.2v-5h1.2v2h2.1v-2h1.2V99.6L101.2,99.6z
			 M108.6,97.6v0.9c0,0.8-0.7,1.2-2,1.2h-2.2v-5h1.2v1.9h0.9c0.2,0,0.4,0,0.5,0c0.1,0,0.3,0,0.4,0c0.2,0,0.3,0,0.4,0.1
			c0.1,0,0.2,0.1,0.3,0.1c0.1,0.1,0.2,0.1,0.3,0.2c0.1,0.1,0.1,0.2,0.2,0.3C108.6,97.3,108.6,97.5,108.6,97.6L108.6,97.6z
			 M107.5,98.3v-0.5c0-0.2-0.1-0.3-0.2-0.3c-0.1-0.1-0.4-0.1-0.6-0.1h-1v1.4h1c0.3,0,0.5,0,0.7-0.1
			C107.4,98.6,107.5,98.5,107.5,98.3L107.5,98.3z M110.5,99.6h-1.2v-5h1.2V99.6L110.5,99.6z M115.1,99.6h-1.3v-5h1.1v3.5l2.2-3.5
			h1.3v5h-1.1v-3.5L115.1,99.6L115.1,99.6z M117.2,93.2c0,0.3-0.1,0.5-0.3,0.7c-0.2,0.2-0.4,0.3-0.7,0.3c-0.3,0-0.6-0.1-0.8-0.3
			c-0.2-0.2-0.3-0.4-0.3-0.7h0.6c0,0.1,0.1,0.3,0.1,0.3c0.1,0.1,0.2,0.1,0.3,0.1c0.3,0,0.4-0.1,0.4-0.4H117.2L117.2,93.2z
			 M129.8,100.9v-1.3h-3.3v-5h1.2v4.1h2.1v-4.1h1.2v6.2H129.8L129.8,100.9z M138.1,99.6h-3.9v-5h3.8v0.8h-2.6v1.1h2.3v0.8h-2.3v1.3
			h2.7V99.6L138.1,99.6z M145.6,99.6h-1.2v-2.1h-2.1v2.1h-1.2v-5h1.2v2h2.1v-2h1.2V99.6L145.6,99.6z M152.7,95.5h-1.5v4.1H150v-4.1
			h-1.5v-0.8h4.2V95.5L152.7,95.5z M159.5,95.8v0.9c0,0.5-0.2,0.8-0.5,1c-0.3,0.2-0.9,0.3-1.6,0.3h-0.7v1.6h-1.2v-5h2
			c0.7,0,1.2,0.1,1.5,0.2C159.3,95.1,159.5,95.4,159.5,95.8L159.5,95.8z M158.3,96.7v-0.8c0-0.2-0.1-0.3-0.2-0.3
			c-0.1-0.1-0.3-0.1-0.7-0.1h-0.7v1.7h0.8c0.3,0,0.5,0,0.7-0.1C158.3,97,158.3,96.9,158.3,96.7z"/>
		<path class="st0" d="M17.6,75.8v9.7c0,1-0.2,2.1-0.8,2.9c-0.6,0.8-1.3,1.4-2.3,1.8c-0.9,0.4-1.8,0.6-2.8,0.8c-1,0.2-2,0.2-3,0.2
			c-3.9,0-8.7-0.8-8.7-5.7v-9.7c0-5,4.6-6,8.7-6C12.9,69.8,17.6,70.8,17.6,75.8L17.6,75.8z M109.6,77.7v13.2h-3.2V77.7h-5.5v-2.4
			h14.2v2.4H109.6L109.6,77.7z M118.9,83.9V86c0,0.9,0.3,1.7,1.1,2.1c0.9,0.5,2.3,0.7,3.4,0.7c1.6,0,3.4-0.3,5-0.7l0.2-0.1v2.6
			l-0.1,0c-1.9,0.4-3.9,0.6-5.9,0.6c-1.7,0-3.4-0.3-4.9-1.1c-1.4-0.8-1.9-2.1-1.9-3.7v-6c0-1.6,0.4-3.2,1.7-4.1
			c1.4-1,3.6-1.2,5.2-1.2c1.6,0,3.6,0.2,4.9,1.2c1.3,1,1.6,2.7,1.6,4.2v3.5H118.9L118.9,83.9z M144.6,86.3c-0.1,3.3-1.6,4.6-4.8,4.8
			c-0.7,0-1.4,0.1-2.2,0.1c-0.9,0-1.8,0-2.7-0.1c-3.2-0.4-4.2-2.1-4.2-5.2v-5.3c0-0.9,0.1-1.8,0.4-2.6c0.8-2.2,2.3-2.8,4.4-3
			c0.7-0.1,1.4-0.1,2.2-0.1c0.7,0,1.4,0,2.2,0.1c2.2,0.2,3.7,0.8,4.4,3c0.2,0.7,0.3,1.4,0.4,2.1l0,0.2h-3.3v-0.2
			c0-2.8-1.3-2.9-3.7-2.9c-2.4,0-3.7,0.1-3.7,2.9v6.2c0,1.6,0.4,2.5,2.1,2.6c0.5,0.1,1.1,0.1,1.6,0.1c0.5,0,1.1,0,1.6-0.1
			c1.7-0.2,2.1-1,2.1-2.6v-0.2h3.3L144.6,86.3L144.6,86.3z M154,77.7v13.2h-3.2V77.7h-5.5v-2.4h14.2v2.4H154L154,77.7z M29.9,77.7
			H23v13.2h-3.2V75.3h13.2v15.6h-3.2V77.7L29.9,77.7z M43.2,77.7v13.2H40V77.7h-5.5v-2.4h14.2v2.4H43.2L43.2,77.7z M53.1,87.1
			l7.3-11.8h4v15.6h-3V78.8L54,90.9h-4V75.3h3V87.1L53.1,87.1z M82.2,78.6l-4.5,12.3h-3.1l-4.7-12.3v12.3h-3V75.3h4.9l4.6,12.2
			l4.3-12.2h4.7v15.6h-3V78.6L82.2,78.6z M97,90c-0.9,1.1-3.2,1.2-4.4,1.2c-1.4,0-3.4-0.1-4.5-1c-1.1-0.9-1.3-2.7-1.3-4
			c0-1.2,0.2-2.8,1.2-3.6c1.1-0.9,3.2-1,4.5-1h4.4v-2.2c0-0.6-0.1-1.2-0.7-1.5c-0.7-0.4-2.1-0.4-2.8-0.4c-1.7,0-3.5,0.2-5.2,0.4
			l-0.2,0v-2.4l0.2,0c1.9-0.2,3.8-0.3,5.7-0.3c1.4,0,4,0.1,5.1,1c1.1,0.9,1.2,2.7,1.2,4v10.9H97V90L97,90z M14.3,85.4v-9.7
			c0-3.1-3-3.6-5.5-3.6c-0.7,0-1.4,0-2.1,0.1c-0.6,0.1-1.2,0.3-1.7,0.5C4.5,73,4,73.4,3.7,73.9c-0.3,0.5-0.4,1.2-0.4,1.8v9.7
			c0,2.9,3.2,3.3,5.5,3.3C11.1,88.8,14.3,88.4,14.3,85.4L14.3,85.4z M126,81.7v-2.2c0-0.7-0.1-1.4-0.7-1.8c-0.7-0.4-1.9-0.5-2.7-0.5
			c-0.8,0-2,0.1-2.8,0.5c-0.7,0.3-0.8,1.1-0.8,1.8v2.2H126L126,81.7z M96.9,83.6h-4.2c-0.5,0-1.9,0-2.3,0.4C90,84.5,90,85.7,90,86.3
			c0,0.7,0.1,1.7,0.5,2.2c0.4,0.5,1.4,0.6,2,0.6h0.6c0.5,0,0.9,0,1.4,0c0.4,0,0.8-0.1,1.2-0.2c0.3-0.1,0.7-0.2,1-0.4
			c0.2-0.2,0.3-0.4,0.3-0.7V83.6z"/>
	</g>
	<path class="st0" d="M79.3,68H48.2c-0.3,0-0.6-0.2-0.7-0.6c-0.1-0.3,0.1-0.7,0.4-0.8l19.8-10.1c-8.4-5-18.5-8.1-19.9-19.8
		c0-1,0.5-1.9,1.4-2.1l3.4-0.6c-0.1-0.8-0.1-1.5-0.1-2.3l-4.9-0.1c0-1.8,0.2-3.5,0.5-5.2l9.4,1.7c0-0.3,0-0.6,0.1-1
		c0-0.3,0.1-0.8,0.3-1.3l-9-2.6c0.5-1.7,1.1-3.3,1.9-4.9l12,5.7l0.7,0c0.1-0.5,0.1-1.2,0.2-1.6l-11.4-6.9c0.9-1.5,1.9-2.9,3.1-4.2
		l10.3,8.8l2.3-0.3L57.4,9c1.3-1.2,2.6-2.3,4-3.3l9.5,13.7l1.7-0.2L64.1,4c1.5-0.8,3.1-1.6,4.8-2.1l6.1,17l1.4-0.2L72,0.9
		c1.7-0.4,3.4-0.7,5.2-0.8l1.5,18.3l1.4-0.2L80.4,0c1.8,0,3.5,0.2,5.2,0.5l-3.2,17.4l1.6-0.2l4.7-16.4c1.7,0.5,3.3,1.1,4.9,1.9
		l-6.9,14.5c0.7,0.2,1.1,0.5,1.3,0.9l8.4-13.9c1.5,0.9,2.9,1.9,4.2,3.1l-12.8,15c0,0.6-0.1,1.2,0,1.8L103,9.9c1.2,1.3,2.3,2.6,3.3,4
		L88.1,26.5c0.1,0.4,0.2,0.7,0.3,1L108,16.7c0.8,1.5,1.6,3.1,2.1,4.8L88.9,29c0.1,0.3,0.3,0.6,0.5,0.9l21.7-5.4
		c0.4,1.7,0.7,3.4,0.8,5.2l-21.5,1.7c0.3,0.4,0.7,0.7,1,1.1l20.5,0.4c0,1.8-0.2,3.5-0.5,5.2L94.4,35c1,0.8,2,1.5,2.9,2.4l13.4,3.9
		c-0.5,1.7-1.1,3.3-1.9,4.9l-7.6-3.6c0.5,1,0.9,2.2,1.2,3.5l4.9,3c-1.3,2.1-2.8,4.1-4.5,5.8c-0.5-0.2-1-0.4-1.4-0.6
		c1.6-17.6-19.1-16.1-17-33.2l-18.9,2.9C62.9,46.2,88,43.2,85.9,66.2l9.6-7.4c-1.4-1.2-2.7-2.5-3.9-4.1c-0.5-0.6-1.2-0.8-1.8-0.6
		c-0.4,0.2-0.8,0.4-1.2,0.6c-0.1-0.5-0.2-1-0.3-1.5c-0.2-0.8-0.8-1.4-1.5-1.5c-0.5-0.1-1-0.2-1.5-0.3c0.1-0.5,0.3-0.9,0.4-1.4
		c0.2-0.7-0.1-1.5-0.7-2c-0.4-0.3-0.8-0.7-1.3-1c0.4-0.3,0.7-0.5,1.1-0.8c0.5-0.4,0.7-1.1,0.3-1.8c-0.2-0.5-0.4-1-0.7-1.4
		c0.5,0,0.9,0,1.4,0c0.7,0,1.2-0.5,1.2-1.1c0-0.5,0-0.9,0-1.4c0.4,0.2,0.9,0.5,1.3,0.7c0.6,0.4,1.3,0.3,1.6-0.2
		c0.2-0.3,0.4-0.6,0.7-0.9c0.3,0.4,0.6,0.8,0.9,1.2c0.4,0.6,1.1,0.9,1.6,0.7c0.4-0.1,0.7-0.2,1-0.3c0.1,0.4,0.2,0.9,0.3,1.3
		c0.2,0.7,0.7,1.2,1.2,1.4c0.4,0.1,0.8,0.2,1.2,0.3c-0.1,0.4-0.2,0.8-0.3,1.2c-0.1,0.6,0.1,1.3,0.6,1.7c0.3,0.3,0.7,0.6,1,0.9
		c-0.3,0.2-0.5,0.5-0.8,0.7c-0.4,0.4-0.5,1.1-0.2,1.7c1.6,3.5,5.1,5.2,8.7,5.9l-4,1.6l-0.2,4.6c-1.9-1-3.6-2-5.2-3.1l-10.3,7.9
		c-0.3,0.2-0.7,0.4-1,0.4L79.3,68L79.3,68L79.3,68z M89.7,44.6c-1.4,0.7-1.8,2.8-0.7,4.6c1.1,1.8,3.1,2.4,4.4,1.6
		C94.8,50,95,48,94,46.3C93,44.7,91.1,43.9,89.7,44.6L89.7,44.6z M88.8,43.1c-1.1,0.5-1.8,1.6-2,2.8c-0.2,1.3,0.1,2.7,0.9,4.1
		c0.8,1.3,2,2.2,3.2,2.7c1.2,0.4,2.4,0.3,3.4-0.4c1-0.7,1.5-1.7,1.6-2.9c0.1-1.2-0.2-2.5-0.9-3.7c-0.7-1.2-1.8-2.1-2.9-2.6
		C91,42.6,89.8,42.6,88.8,43.1L88.8,43.1z M69,32.2c4.6-1.2,9.1-2.3,13.7-3.5c0.8-0.2,0.5-1.4-0.3-1.2c-4.6,1.1-9.2,2.1-13.7,3.2
		C67.8,30.9,68,32.5,69,32.2L69,32.2z M76.4,42l12.7-5.1c0.8-0.3,0-1.3-0.8-1l-12.7,4.9C74.6,41.1,75.3,42.4,76.4,42L76.4,42z
		 M70.8,35.9c4.4-1.3,8.9-2.7,13.3-4c0.8-0.2,0.3-1.4-0.5-1.2c-4.5,1.2-8.9,2.5-13.4,3.7C69.4,34.7,69.8,36.2,70.8,35.9L70.8,35.9z
		 M73.4,39.1c4.3-1.5,8.7-3,13-4.5c0.8-0.3,0.1-1.4-0.7-1.1c-4.4,1.4-8.7,2.9-13.1,4.3C71.9,38.1,72.4,39.5,73.4,39.1L73.4,39.1z
		 M68.1,28.3l14-3c0.8-0.2,0.7-1.4-0.1-1.3l-14.1,2.6C67.1,26.8,67.1,28.5,68.1,28.3L68.1,28.3z M53.2,37.6l-3,0.8
		c3.6,14.8,23.5,12.8,29.6,27.4c-0.7-3.5-2.3-6.2-4.9-8.7c-2.1-2-4.6-3.5-7.1-5c-3.7-2.2-7.5-4.3-10.5-7.4
		C55.3,42.6,53.9,40.2,53.2,37.6L53.2,37.6z M63.2,27.7l-3.6,0.7C58.4,48,81.7,44.6,83.8,65.2c0.3-5.4-0.9-9.8-4.6-14
		c-3.3-3.8-7.5-6.5-10.8-10.3c-1.8-2.1-3.3-4.4-4.2-7.1C63.5,31.8,63.2,29.8,63.2,27.7L63.2,27.7z M57.5,32.4l-3.1,0.7
		c1.3,18.1,23.3,14.8,27.3,32.4c-0.3-5-2.2-8.9-5.9-12.4c-1.1-1-2.2-1.9-3.4-2.8c-3.8-2.8-8.1-5.4-11.1-9.1
		C59.1,38.4,57.9,35.5,57.5,32.4z"/>
</g>
</svg>
